<?xml version="1.0" encoding="UTF-8" standalone="no"?>
<!-- Created with Inkscape (http://www.inkscape.org/) -->

<svg
   xmlns:dc="http://purl.org/dc/elements/1.1/"
   xmlns:cc="http://creativecommons.org/ns#"
   xmlns:rdf="http://www.w3.org/1999/02/22-rdf-syntax-ns#"
   xmlns:svg="http://www.w3.org/2000/svg"
   xmlns="http://www.w3.org/2000/svg"
   xmlns:sodipodi="http://sodipodi.sourceforge.net/DTD/sodipodi-0.dtd"
   xmlns:inkscape="http://www.inkscape.org/namespaces/inkscape"
   width="777"
   height="1024"
   viewBox="0 0 205.58124 270.93334"
   version="1.1"
   id="svg8"
   inkscape:version="0.92.3 (2405546, 2018-03-11)"
   sodipodi:docname="title.svg">
  <defs
     id="defs2">
    <filter
       inkscape:collect="always"
       style="color-interpolation-filters:sRGB"
       id="filter1112"
       x="-0.026973885"
       width="1.0539478"
       y="-0.061512135"
       height="1.1230243">
      <feGaussianBlur
         inkscape:collect="always"
         stdDeviation="1.0079688"
         id="feGaussianBlur1114" />
    </filter>
  </defs>
  <sodipodi:namedview
     id="base"
     pagecolor="#ffffff"
     bordercolor="#666666"
     borderopacity="1.0"
     inkscape:pageopacity="0.0"
     inkscape:pageshadow="2"
     inkscape:zoom="1.979899"
     inkscape:cx="338.28075"
     inkscape:cy="785.27425"
     inkscape:document-units="mm"
     inkscape:current-layer="g1136"
     showgrid="false"
     inkscape:window-width="1680"
     inkscape:window-height="988"
     inkscape:window-x="1016"
     inkscape:window-y="32"
     inkscape:window-maximized="1"
     inkscape:pagecheckerboard="true"
     inkscape:snap-global="false"
     units="px" />
  <metadata
     id="metadata5">
    <rdf:RDF>
      <cc:Work
         rdf:about="">
        <dc:format>image/svg+xml</dc:format>
        <dc:type
           rdf:resource="http://purl.org/dc/dcmitype/StillImage" />
        <dc:title></dc:title>
      </cc:Work>
    </rdf:RDF>
  </metadata>
  <g
     inkscape:label="Capa 1"
     inkscape:groupmode="layer"
     id="layer1"
     transform="translate(-60.977693,173.95059)">
    <g
       id="g1136"
       transform="translate(-3.346555)">
      <circle
         transform="rotate(-90.295135)"
         r="26.620058"
         cy="120.08379"
         cx="124.5825"
         id="path835"
         style="opacity:1;vector-effect:none;fill:#0000ff;fill-opacity:1;stroke:#ffffff;stroke-width:3.60870075;stroke-linecap:round;stroke-linejoin:round;stroke-miterlimit:4;stroke-dasharray:none;stroke-dashoffset:0;stroke-opacity:1;paint-order:fill markers stroke" />
      <path
         transform="rotate(-90.295135)"
         d="m 151.20255,120.08379 a 26.620058,26.620058 0 0 1 -8.95201,19.9115 l -17.66804,-19.9115 z"
         sodipodi:end="0.84502625"
         sodipodi:start="0"
         sodipodi:ry="26.620058"
         sodipodi:rx="26.620058"
         sodipodi:cy="120.08379"
         sodipodi:cx="124.5825"
         sodipodi:type="arc"
         style="opacity:1;vector-effect:none;fill:#ff0000;fill-opacity:1;stroke:#ffffff;stroke-width:3.60870075;stroke-linecap:round;stroke-linejoin:round;stroke-miterlimit:4;stroke-dasharray:none;stroke-dashoffset:0;stroke-opacity:1;paint-order:fill markers stroke"
         id="circle837" />
      <path
         transform="rotate(-139.71479)"
         d="m 16.497066,172.55392 a 26.620058,26.620058 0 0 1 -8.952015,19.9115 l -17.668043,-19.9115 z"
         sodipodi:end="0.84502625"
         sodipodi:start="0"
         sodipodi:ry="26.620058"
         sodipodi:rx="26.620058"
         sodipodi:cy="172.55392"
         sodipodi:cx="-10.122992"
         sodipodi:type="arc"
         style="opacity:1;vector-effect:none;fill:#b3b3b3;fill-opacity:1;stroke:#ffffff;stroke-width:3.60870075;stroke-linecap:round;stroke-linejoin:round;stroke-miterlimit:4;stroke-dasharray:none;stroke-dashoffset:0;stroke-opacity:1;paint-order:fill markers stroke"
         id="circle837-6" />
      <text
         xml:space="preserve"
         style="font-style:normal;font-variant:normal;font-weight:bold;font-stretch:normal;font-size:52.43680954px;line-height:1.25;font-family:Ebrima;-inkscape-font-specification:'Ebrima, Bold';font-variant-ligatures:normal;font-variant-caps:normal;font-variant-numeric:normal;font-feature-settings:normal;text-align:start;letter-spacing:0px;word-spacing:0px;writing-mode:lr-tb;text-anchor:start;fill:#ff0000;fill-opacity:1;stroke:#000000;stroke-width:1.31091654;stroke-opacity:1;filter:url(#filter1112)"
         x="70.346848"
         y="57.385628"
         id="text886"
         transform="matrix(1,0,-0.52955373,1,58.964285,-168.57738)"><tspan
           sodipodi:role="line"
           id="tspan884"
           x="70.346848"
           y="57.385628"
           style="font-style:normal;font-variant:normal;font-weight:bold;font-stretch:normal;font-size:52.43680954px;font-family:Ebrima;-inkscape-font-specification:'Ebrima, Bold';font-variant-ligatures:normal;font-variant-caps:normal;font-variant-numeric:normal;font-feature-settings:normal;text-align:start;writing-mode:lr-tb;text-anchor:start;fill:#ff0000;fill-opacity:1;stroke:#000000;stroke-width:1.31091654;stroke-opacity:1">six</tspan></text>
      <path
         transform="translate(58.964285,-168.57738)"
         d="m 59.777344,52.539062 a 5.0786285,5.0786285 0 0 0 -5.078125,5.078126 v 38.058593 a 5.0786285,5.0786285 0 0 0 5.078125,5.078129 h 8.310547 a 5.0786285,5.0786285 0 0 0 4.091797,-2.080082 5.0786285,5.0786285 0 0 0 4.091796,2.080082 h 8.310547 a 5.0786285,5.0786285 0 0 0 4.962891,-4.03516 c 3.466713,3.278259 8.251774,4.97266 13.433598,4.97266 4.59633,0 8.96161,-1.39919 12.23242,-4.287113 a 5.0786285,5.0786285 0 0 0 4.76953,3.349613 h 8.3125 a 5.0786285,5.0786285 0 0 0 2.82812,-0.861332 5.0786285,5.0786285 0 0 0 2.82227,0.861332 h 8.31055 a 5.0786285,5.0786285 0 0 0 1.4375,-0.21094 5.0786285,5.0786285 0 0 0 1.42578,0.21094 h 10.9707 a 5.0786285,5.0786285 0 0 0 3.8457,-1.761722 L 162.12695,96.447266 164.33789,99 a 5.0786285,5.0786285 0 0 0 3.83789,1.75391 h 10.9961 a 5.0786285,5.0786285 0 0 0 3.73242,-8.521488 l -8.63477,-9.359375 6.61328,-7.302735 a 5.0786285,5.0786285 0 0 0 -3.76367,-8.486328 h -10.79297 a 5.0786285,5.0786285 0 0 0 -3.86133,1.78125 l -0.23242,0.273438 -0.19922,-0.238281 a 5.0786285,5.0786285 0 0 0 -3.89258,-1.816407 h -10.81835 a 5.0786285,5.0786285 0 0 0 -0.38672,0.01953 c 0.56825,-1.279847 0.92773,-2.646297 0.92773,-3.988282 0,-2.475812 -1.09251,-5.137196 -2.87305,-6.896484 -1.76824,-1.759569 -4.41452,-2.84375 -6.89257,-2.84375 -1.87202,0 -3.7248,0.76447 -5.33789,1.824219 a 5.0786285,5.0786285 0 0 0 -4.4668,-2.660157 h -8.3125 a 5.0786285,5.0786285 0 0 0 -5.07813,5.078126 v 13.376953 c -3.25563,-2.968966 -7.7466,-4.570313 -12.48046,-4.570313 -5.113109,0 -9.942909,1.611105 -13.29688,5.064453 -0.514106,0.529338 -0.918408,1.13878 -1.351562,1.728516 -0.683347,-1.24717 -1.495154,-2.416467 -2.591797,-3.359375 a 5.0786285,5.0786285 0 0 0 -0.01172,-0.01172 c -2.600502,-2.221261 -6.042056,-3.294922 -9.480469,-3.294922 -0.855536,0 -1.686291,0.155929 -2.523437,0.275391 v -9.208984 a 5.0786285,5.0786285 0 0 0 -5.078125,-5.078126 z m 8.480468,15.804688 c -0.0051,0.0029 -0.0086,0.0069 -0.01367,0.0098 -0.0031,0.0018 -0.0067,0.0021 -0.0098,0.0039 z m 79.074218,11.470703 2.69531,3.03125 -2.69531,2.927735 z m -44.45312,1.556641 0.11718,0.138672 c 0.044,-0.264278 -0.0103,0.0113 -0.1914,0.183593 l -0.0176,0.01563 c -0.0107,0.01005 -0.0271,0.0127 -0.041,0.02148 -0.041,-0.02234 -0.0625,-0.02428 -0.10547,-0.05859 z"
         id="text1122"
         style="font-style:normal;font-variant:normal;font-weight:bold;font-stretch:normal;font-size:51.89361191px;line-height:1.25;font-family:Aharoni;-inkscape-font-specification:'Aharoni, Bold';font-variant-ligatures:normal;font-variant-caps:normal;font-variant-numeric:normal;font-feature-settings:normal;text-align:start;letter-spacing:0px;word-spacing:0px;writing-mode:lr-tb;text-anchor:start;fill:#ffffff;fill-opacity:1;stroke:none;stroke-width:1.29700005;stroke-miterlimit:4;stroke-dasharray:none;stroke-opacity:1"
         inkscape:original="M 59.777344 57.617188 L 59.777344 95.675781 L 68.087891 95.675781 L 68.087891 83.082031 C 68.087891 81.426571 68.476853 80.202148 69.253906 79.408203 C 70.098529 78.546688 71.161486 78.115234 72.445312 78.115234 C 73.830494 78.115234 74.869909 78.614673 75.5625 79.611328 C 76.035489 80.287026 76.271484 81.670961 76.271484 83.765625 L 76.271484 95.675781 L 84.582031 95.675781 L 84.582031 80.701172 C 84.582031 77.592961 83.678586 75.261137 81.871094 73.707031 C 80.249418 72.32185 78.189536 71.628906 75.689453 71.628906 C 73.729929 71.628906 72.082551 72.009371 70.748047 72.769531 C 69.937209 73.225627 69.05076 74.010098 68.087891 75.125 L 68.087891 57.617188 L 59.777344 57.617188 z M 119.98047 57.617188 L 119.98047 95.675781 L 128.29297 95.675781 L 128.29297 57.617188 L 119.98047 57.617188 z M 138.09766 58.453125 C 136.79694 58.453125 135.69149 58.90812 134.7793 59.820312 C 133.884 60.715612 133.43555 61.814516 133.43555 63.115234 C 133.43555 64.415953 133.884 65.523354 134.7793 66.435547 C 135.69149 67.347739 136.79694 67.802734 138.09766 67.802734 C 139.41527 67.802734 140.52267 67.354284 141.41797 66.458984 C 142.33016 65.546792 142.78516 64.432846 142.78516 63.115234 C 142.78516 61.814516 142.33016 60.715612 141.41797 59.820312 C 140.50578 58.90812 139.39838 58.453125 138.09766 58.453125 z M 102.42188 71.501953 C 98.266332 71.501953 95.048059 72.67734 92.767578 75.025391 C 90.487097 77.373441 89.345703 80.421751 89.345703 84.171875 C 89.345703 87.330763 90.2596 90.007106 92.083984 92.203125 C 94.516497 95.142412 98.147274 96.613281 102.97852 96.613281 C 106.77932 96.613281 109.81258 95.556869 112.07617 93.445312 C 113.32621 92.279733 114.27215 90.632355 114.91406 88.503906 L 106.88086 88.503906 C 105.95177 89.990442 104.61688 90.734375 102.87695 90.734375 C 99.464678 90.734375 97.759766 88.969976 97.759766 85.439453 L 115.24219 85.439453 L 115.24219 84.375 C 115.24219 81.604638 114.62573 79.170836 113.39258 77.076172 C 111.19656 73.359832 107.54029 71.501953 102.42188 71.501953 z M 133.94336 72.162109 L 133.94336 95.675781 L 142.25391 95.675781 L 142.25391 72.162109 L 133.94336 72.162109 z M 147.32227 72.162109 L 156.875 82.904297 L 145.11719 95.675781 L 156.08789 95.675781 L 162.11914 88.681641 L 168.17578 95.675781 L 179.17188 95.675781 L 167.39062 82.904297 L 177.11914 72.162109 L 166.32617 72.162109 L 162.19531 77 L 158.14062 72.162109 L 147.32227 72.162109 z M 102.75 76.773438 C 105.31765 76.773438 106.89705 78.074344 107.48828 80.675781 L 97.986328 80.675781 C 98.172145 79.560879 98.612097 78.672477 99.304688 78.013672 C 100.18309 77.185942 101.33103 76.773438 102.75 76.773438 z "
         inkscape:radius="5.0781207"
         sodipodi:type="inkscape:offset" />
      <g
         aria-label="six"
         transform="skewX(-27.903624)"
         style="font-style:normal;font-variant:normal;font-weight:bold;font-stretch:normal;font-size:52.43680954px;line-height:1.25;font-family:Ebrima;-inkscape-font-specification:'Ebrima, Bold';font-variant-ligatures:normal;font-variant-caps:normal;font-variant-numeric:normal;font-feature-settings:normal;text-align:start;letter-spacing:0px;word-spacing:0px;writing-mode:lr-tb;text-anchor:start;fill:#ff0000;fill-opacity:1;stroke:#ffffff;stroke-width:1.31091654;stroke-opacity:1"
         id="text821">
        <path
           d="m 41.73021,-111.88306 v -6.5546 q 1.997105,1.20339 3.968606,1.79228 1.997105,0.58889 3.763775,0.58889 2.150729,0 3.379716,-0.58889 1.254592,-0.58889 1.254592,-1.79228 0,-0.76811 -0.563286,-1.28019 -0.563286,-0.51208 -1.459423,-0.89614 -0.870533,-0.38406 -1.920293,-0.6913 -1.049761,-0.30725 -2.022709,-0.69131 -1.561839,-0.58889 -2.765223,-1.25459 -1.17778,-0.69131 -1.997105,-1.58744 -0.793721,-0.89614 -1.228987,-2.07392 -0.409663,-1.17778 -0.409663,-2.79083 0,-2.20193 0.947345,-3.78938 0.972948,-1.58744 2.560391,-2.58599 1.613046,-1.02416 3.661359,-1.48503 2.073917,-0.48647 4.301457,-0.48647 1.741066,0 3.53334,0.28164 1.792274,0.25604 3.533339,0.76812 v 6.24735 q -1.536234,-0.89613 -3.302904,-1.3314 -1.741066,-0.46087 -3.430924,-0.46087 -0.793721,0 -1.510631,0.15362 -0.691305,0.12802 -1.228988,0.40966 -0.537682,0.25604 -0.844929,0.69131 -0.307247,0.40966 -0.307247,0.94735 0,0.7169 0.460871,1.22898 0.46087,0.51208 1.203384,0.89614 0.742513,0.35845 1.63865,0.6657 0.921741,0.28164 1.817878,0.58889 1.613046,0.56329 2.918845,1.22899 1.3058,0.6657 2.227541,1.56184 0.947344,0.89613 1.433819,2.09952 0.512078,1.20338 0.512078,2.86764 0,2.32995 -1.024156,3.99421 -0.998553,1.63865 -2.688411,2.68841 -1.664254,1.02415 -3.866191,1.48502 -2.176332,0.48648 -4.531892,0.48648 -4.327061,0 -8.014024,-1.33141 z"
           style="font-style:normal;font-variant:normal;font-weight:bold;font-stretch:normal;font-size:52.43680954px;font-family:Ebrima;-inkscape-font-specification:'Ebrima, Bold';font-variant-ligatures:normal;font-variant-caps:normal;font-variant-numeric:normal;font-feature-settings:normal;text-align:start;writing-mode:lr-tb;text-anchor:start;fill:#ff0000;fill-opacity:1;stroke:#ffffff;stroke-width:1.31091654;stroke-opacity:1"
           id="path839" />
        <path
           d="m 70.585818,-141.55799 q -2.048313,0 -3.354113,-1.20338 -1.305799,-1.22899 -1.305799,-2.99566 0,-1.81788 1.305799,-2.97005 1.3058,-1.15218 3.354113,-1.15218 2.073917,0 3.354112,1.15218 1.3058,1.15217 1.3058,2.97005 0,1.84348 -1.3058,3.02126 -1.280195,1.17778 -3.354112,1.17778 z m 3.99421,30.36624 h -8.090836 v -26.2184 h 8.090836 z"
           style="font-style:normal;font-variant:normal;font-weight:bold;font-stretch:normal;font-size:52.43680954px;font-family:Ebrima;-inkscape-font-specification:'Ebrima, Bold';font-variant-ligatures:normal;font-variant-caps:normal;font-variant-numeric:normal;font-feature-settings:normal;text-align:start;writing-mode:lr-tb;text-anchor:start;fill:#ff0000;fill-opacity:1;stroke:#ffffff;stroke-width:1.31091654;stroke-opacity:1"
           id="path841" />
        <path
           d="m 106.76414,-137.41015 -8.654118,12.69954 8.602918,13.51886 h -9.319827 l -3.789379,-7.06668 q -0.46087,-0.84493 -1.100968,-2.38116 H 92.40035 q -0.384058,1.07536 -1.04976,2.30435 l -3.814983,7.14349 h -9.294219 l 8.858953,-13.05799 -8.321271,-13.16041 h 9.371031 l 3.738171,7.34832 q 0.742513,1.45942 1.04976,2.45797 h 0.102416 q 0.409663,-1.20338 1.100968,-2.50918 l 3.814983,-7.29711 z"
           style="font-style:normal;font-variant:normal;font-weight:bold;font-stretch:normal;font-size:52.43680954px;font-family:Ebrima;-inkscape-font-specification:'Ebrima, Bold';font-variant-ligatures:normal;font-variant-caps:normal;font-variant-numeric:normal;font-feature-settings:normal;text-align:start;writing-mode:lr-tb;text-anchor:start;fill:#ff0000;fill-opacity:1;stroke:#ffffff;stroke-width:1.31091654;stroke-opacity:1"
           id="path843" />
      </g>
      <g
         aria-label="helix"
         style="font-style:normal;font-variant:normal;font-weight:bold;font-stretch:normal;font-size:51.89361191px;line-height:1.25;font-family:Aharoni;-inkscape-font-specification:'Aharoni, Bold';font-variant-ligatures:normal;font-variant-caps:normal;font-variant-numeric:normal;font-feature-settings:normal;text-align:start;letter-spacing:0px;word-spacing:0px;writing-mode:lr-tb;text-anchor:start;fill:#000080;fill-opacity:1;stroke:none;stroke-width:1.29700005;stroke-miterlimit:4;stroke-dasharray:none;stroke-opacity:1"
         id="text1118">
        <path
           d="m 143.54728,-72.901939 h -8.31109 v -11.909179 q 0,-3.141996 -0.70948,-4.155543 -1.03889,-1.494982 -3.11666,-1.494982 -1.92574,0 -3.19267,1.292273 -1.16558,1.190917 -1.16558,3.674108 v 12.593323 h -8.31109 v -38.058691 h 8.31109 v 17.509023 q 1.4443,-1.672353 2.66056,-2.356497 2.00175,-1.140241 4.94104,-1.140241 3.75012,0 6.18264,2.077772 2.71124,2.331158 2.71124,6.993475 z"
           style="font-style:normal;font-variant:normal;font-weight:bold;font-stretch:normal;font-size:51.89361191px;font-family:Aharoni;-inkscape-font-specification:'Aharoni, Bold';font-variant-ligatures:normal;font-variant-caps:normal;font-variant-numeric:normal;font-feature-settings:normal;text-align:start;writing-mode:lr-tb;text-anchor:start;fill:#000080;stroke:none;stroke-width:1.29700005;stroke-miterlimit:4;stroke-dasharray:none;stroke-opacity:1"
           id="path828" />
        <path
           d="m 174.20708,-83.138765 h -17.48369 q 0,5.295783 5.11841,5.295783 2.60989,0 4.00351,-2.229803 h 8.03236 q -0.96287,3.192673 -2.83793,4.941042 -3.39538,3.167335 -9.09658,3.167335 -7.24687,0 -10.89563,-4.40893 -2.73658,-3.294028 -2.73658,-8.032361 0,-5.625187 3.42072,-9.147263 3.42072,-3.522076 9.65404,-3.522076 7.67762,0 10.97164,5.574509 1.84973,3.141996 1.84973,7.297539 z m -7.75364,-4.763672 q -0.88685,-3.902156 -4.73833,-3.902156 -2.12845,0 -3.44606,1.241595 -1.03889,0.988209 -1.31761,2.660561 z"
           style="font-style:normal;font-variant:normal;font-weight:bold;font-stretch:normal;font-size:51.89361191px;font-family:Aharoni;-inkscape-font-specification:'Aharoni, Bold';font-variant-ligatures:normal;font-variant-caps:normal;font-variant-numeric:normal;font-feature-settings:normal;text-align:start;writing-mode:lr-tb;text-anchor:start;fill:#000080;stroke:none;stroke-width:1.29700005;stroke-miterlimit:4;stroke-dasharray:none;stroke-opacity:1"
           id="path830" />
        <path
           d="m 187.25649,-72.901939 h -8.31108 v -38.058691 h 8.31108 z"
           style="font-style:normal;font-variant:normal;font-weight:bold;font-stretch:normal;font-size:51.89361191px;font-family:Aharoni;-inkscape-font-specification:'Aharoni, Bold';font-variant-ligatures:normal;font-variant-caps:normal;font-variant-numeric:normal;font-feature-settings:normal;text-align:start;writing-mode:lr-tb;text-anchor:start;fill:#000080;stroke:none;stroke-width:1.29700005;stroke-miterlimit:4;stroke-dasharray:none;stroke-opacity:1"
           id="path832" />
        <path
           d="m 201.75022,-105.46214 q 0,1.97642 -1.36829,3.34471 -1.34295,1.34295 -3.31936,1.34295 -1.95108,0 -3.31937,-1.36829 -1.34295,-1.36829 -1.34295,-3.31937 0,-1.95108 1.34295,-3.29403 1.36829,-1.36829 3.31937,-1.36829 1.95107,0 3.31936,1.36829 1.36829,1.34295 1.36829,3.29403 z m -0.53211,32.560201 h -8.31109 v -23.514293 h 8.31109 z"
           style="font-style:normal;font-variant:normal;font-weight:bold;font-stretch:normal;font-size:51.89361191px;font-family:Aharoni;-inkscape-font-specification:'Aharoni, Bold';font-variant-ligatures:normal;font-variant-caps:normal;font-variant-numeric:normal;font-feature-settings:normal;text-align:start;writing-mode:lr-tb;text-anchor:start;fill:#000080;stroke:none;stroke-width:1.29700005;stroke-miterlimit:4;stroke-dasharray:none;stroke-opacity:1"
           id="path834" />
        <path
           d="m 238.13656,-72.901939 h -10.99699 l -6.05594,-6.993475 -6.03061,6.993475 h -10.97164 l 11.75714,-12.770694 -9.55268,-10.743599 h 10.81962 l 4.05418,4.839687 4.13021,-4.839687 h 10.79428 l -9.73006,10.743599 z"
           style="font-style:normal;font-variant:normal;font-weight:bold;font-stretch:normal;font-size:51.89361191px;font-family:Aharoni;-inkscape-font-specification:'Aharoni, Bold';font-variant-ligatures:normal;font-variant-caps:normal;font-variant-numeric:normal;font-feature-settings:normal;text-align:start;writing-mode:lr-tb;text-anchor:start;fill:#000080;stroke:none;stroke-width:1.29700005;stroke-miterlimit:4;stroke-dasharray:none;stroke-opacity:1"
           id="path836" />
      </g>
    </g>
  </g>
</svg>
