<svg xmlns="http://www.w3.org/2000/svg" viewBox="0 0 20.814 31.528">
  <defs>
    <style>
      .cls-1 {
        fill: #ffd7a3;
      }

      .cls-2 {
        fill: #fdc88e;
      }

      .cls-3 {
        fill: #353535;
      }

      .cls-4 {
        fill: #232323;
      }

      .cls-5 {
        fill: #ffe1b2;
      }

      .cls-6 {
        fill: #4760c6;
      }

      .cls-7 {
        fill: #3f51b5;
      }
    </style>
  </defs>
  <g id="players" transform="translate(0)">
    <path id="Path_11" data-name="Path 11" class="cls-1" d="M20.811,29.693l-.67-5.5A2.16,2.16,0,0,0,18.707,22.4l-2.589-.883a1.049,1.049,0,0,0-1.022.2l-.763-.258a1.088,1.088,0,0,1-.723-1.033V18.665l2.29-.978a3.261,3.261,0,0,0,1.958-3.01v-.544A1.608,1.608,0,0,0,19.45,12.5a1.641,1.641,0,0,0-.385-1.06c.451-1.678,1.719-6.992.385-9.268L19.981,0s-5.575.136-8.5,1.087L12.547,0S5.08,0,3.52,2.718h0S.865,2.7.865,5.979A37.591,37.591,0,0,0,1.8,11.415,1.633,1.633,0,0,0,1.4,12.5a1.608,1.608,0,0,0,1.593,1.631v.544a3.264,3.264,0,0,0,1.958,3.01l2.29.978v1.753a1.088,1.088,0,0,1-.723,1.033l-.763.258a1.046,1.046,0,0,0-1.022-.2L2.14,22.4A2.16,2.16,0,0,0,.706,24.189l-.684,5.5A1.62,1.62,0,0,0,1.6,31.528H19.231A1.616,1.616,0,0,0,20.811,29.693Z" transform="translate(-0.01 0)"/>
    <g id="Group_23" data-name="Group 23" transform="translate(6.69 18.665)">
      <path id="Path_12" data-name="Path 12" class="cls-2" d="M107.7,274.7h-6.372v1.753a1.093,1.093,0,0,1-.531.931A7.166,7.166,0,0,0,107.7,274.7Z" transform="translate(-100.8 -274.7)"/>
    </g>
    <g id="Group_24" data-name="Group 24" transform="translate(0.849)">
      <path id="Path_13" data-name="Path 13" class="cls-3" d="M13.862,11.959A44.449,44.449,0,0,1,12.8,5.979c0-3.282,2.655-3.261,2.655-3.261h0C17.015,0,24.482,0,24.482,0L23.42,1.087C26.34.136,31.916,0,31.916,0l-.531,2.174c1.593,2.718-.531,9.784-.531,9.784Z" transform="translate(-12.8)"/>
    </g>
    <g id="Group_25" data-name="Group 25" transform="translate(0.849)">
      <path id="Path_14" data-name="Path 14" class="cls-4" d="M24.482,0s-7.467,0-9.027,2.718h0S12.8,2.7,12.8,5.979a44.449,44.449,0,0,0,1.062,5.979S24.9,6.91,31.916,0c0,0-5.575.136-8.5,1.087Z" transform="translate(-12.8)"/>
    </g>
    <path id="Path_15" data-name="Path 15" class="cls-5" d="M37.261,107.805v-1.087A2.686,2.686,0,0,0,34.606,104H25.048a2.686,2.686,0,0,0-2.655,2.718v1.087a1.631,1.631,0,0,0,0,3.261v.544a3.264,3.264,0,0,0,1.958,3.01l3.432,1.461a5.175,5.175,0,0,0,2.044.421h0a5.175,5.175,0,0,0,2.044-.421L35.3,114.62a3.261,3.261,0,0,0,1.958-3.01v-.544a1.631,1.631,0,0,0,0-3.261Z" transform="translate(-19.42 -96.933)"/>
    <g id="Group_26" data-name="Group 26" transform="translate(0 21.454)">
      <path id="Path_16" data-name="Path 16" class="cls-6" d="M20.811,323.98l-.67-5.5a2.16,2.16,0,0,0-1.434-1.794l-2.589-.883a1.033,1.033,0,0,0-1.215.421,5.234,5.234,0,0,1-8.96,0,1.025,1.025,0,0,0-1.215-.421l-2.589.883a2.16,2.16,0,0,0-1.434,1.794l-.684,5.5a1.62,1.62,0,0,0,1.58,1.835H19.231A1.616,1.616,0,0,0,20.811,323.98Z" transform="translate(-0.01 -315.741)"/>
    </g>
    <g id="Group_27" data-name="Group 27" transform="translate(0 23.116)">
      <path id="Path_17" data-name="Path 17" class="cls-7" d="M1.137,340.2a2.2,2.2,0,0,0-.445,1.074l-.67,5.5a1.62,1.62,0,0,0,1.58,1.835H4.576v-3.54a2.238,2.238,0,0,0-.518-1.427Z" transform="translate(-0.01 -340.2)"/>
    </g>
    <g id="Group_28" data-name="Group 28" transform="translate(16.248 23.116)">
      <path id="Path_18" data-name="Path 18" class="cls-7" d="M248.238,340.2a2.2,2.2,0,0,1,.445,1.074l.67,5.5a1.62,1.62,0,0,1-1.58,1.835H244.8v-3.54a2.238,2.238,0,0,1,.518-1.427Z" transform="translate(-244.8 -340.2)"/>
    </g>
    <path id="Path_19" data-name="Path 19" class="cls-1" d="M25.181,113.492a2.566,2.566,0,0,1-.664-1.739V105.59A54.577,54.577,0,0,0,34.606,104H25.048a2.274,2.274,0,0,0-.531.061v-.007a2.7,2.7,0,0,0-2.124,2.664v1.087a1.631,1.631,0,0,0,0,3.261v.544a3.264,3.264,0,0,0,1.958,3.01l3.432,1.461a3.537,3.537,0,0,0,.511.183A21.735,21.735,0,0,1,25.181,113.492Z" transform="translate(-19.42 -96.933)"/>
  </g>
</svg>
